# xmcd
#
# Track frame offsets: 
#        150
#        19461
#        43952
#        74834
#        97247
#        121082
#        161178
#        188968
#
# Disc length: 2846 seconds
#
# Revision: 0
# Processed by: cddbd v1.5.1PL2 Copyright (c) Steve Scherf et al.
# Submitted via: ExactAudioCopy v0.95a4
#
DISCID=7d0b1c08
DTITLE=Jimmy McGriff - The Legendary Jimmy McGriff Live At Smoke
DYEAR=2006
DGENRE=Acid Jazz
TTITLE0=Motorin' Along
TTITLE1=Don't Get Around Much Anymore
TTITLE2=Kiko
TTITLE3=Angel Eyes
TTITLE4=Georgia
TTITLE5=Smokin' At Smoke
TTITLE6=Sonnymoon For Two
TTITLE7=Teach Me Tonight
EXTD=
EXTT0=
EXTT1=
EXTT2=
EXTT3=
EXTT4=
EXTT5=
EXTT6=
EXTT7=
PLAYORDER=
